<svg width="214" height="30" viewBox="0 0 214 30" fill="none" xmlns="http://www.w3.org/2000/svg">
<path d="M61.7084 7.50291C63.172 7.50291 64.0282 7.77398 64.277 8.3161C64.3941 8.63599 64.4392 8.97907 64.4088 9.31948C64.3783 9.6599 64.2732 9.98877 64.1013 10.2813L62.389 13.8277H57.3617L58.8106 10.8008C58.8106 10.6201 58.8106 10.5072 58.6789 10.5072H57.3837C57.2952 10.5141 57.2101 10.5449 57.1368 10.5965C57.0636 10.648 57.0049 10.7185 56.9665 10.8008C55.0127 14.8668 54.0687 16.8998 52.1149 20.9883C52.1149 21.169 52.1149 21.2368 52.2466 21.2368H53.5418C53.6253 21.2472 53.7097 21.2283 53.7814 21.1832C53.8531 21.1381 53.908 21.0694 53.937 20.9883C54.5297 19.7685 54.8371 19.1586 55.4079 17.9162H60.5669C59.8863 19.3619 59.5351 20.0622 58.8326 21.5078C58.4351 22.2972 57.845 22.9666 57.1202 23.4505C56.0922 24.049 54.9188 24.3312 53.7394 24.2636H49.3488C47.8779 24.2636 47.0437 23.97 46.7803 23.4505C46.5168 22.9309 46.7803 21.8918 47.4608 20.401C49.1951 16.7868 50.0293 14.9797 51.8514 11.3656C52.3214 10.1684 53.0763 9.11203 54.0468 8.29351C55.0725 7.68892 56.2477 7.40625 57.4276 7.48032L61.7084 7.50291Z" fill="#3D5084"/>
<path d="M68.052 16.0046C68.3309 15.9795 68.6119 16.0197 68.8714 16.1217C69.1308 16.2238 69.3612 16.3848 69.5429 16.5912L70.6844 14.3351C70.6844 14.1321 70.6844 14.0418 70.5446 14.0418H69.1702C69.0774 14.042 68.987 14.0704 68.9117 14.123C68.8365 14.1756 68.7802 14.2498 68.7509 14.3351L68.3782 15.057H63.8822V14.8991C64.3059 14.1049 64.9413 13.435 65.7225 12.9589C66.3996 12.4722 67.2099 12.1897 68.052 12.1468H73.8525C74.1704 12.1114 74.4918 12.17 74.7746 12.315C75.0573 12.46 75.2881 12.6845 75.4366 12.9589C75.5787 13.2688 75.6403 13.6076 75.6159 13.9459C75.5915 14.2841 75.482 14.6114 75.2968 14.8991C73.4099 18.6442 72.4781 20.5167 70.498 24.2617H65.606L65.9322 23.6526C65.2991 24.027 64.5769 24.2368 63.8356 24.2617H61.5061C61.1879 24.3003 60.8651 24.2431 60.5817 24.0978C60.2982 23.9525 60.0679 23.7261 59.922 23.4495C59.7853 23.1374 59.7287 22.7979 59.7571 22.46C59.7855 22.1221 59.8981 21.7959 60.0851 21.5093L61.4828 18.757C61.9137 17.9677 62.5475 17.2994 63.3231 16.8168C64.0002 16.3332 64.8119 16.0581 65.6526 16.0271L68.052 16.0046ZM68.7509 18.2606C68.7509 18.0801 68.7509 18.0125 68.5878 18.0125H67.2134C67.1234 18.0109 67.035 18.036 66.9601 18.0844C66.8852 18.1328 66.8273 18.2021 66.7941 18.2832C66.0021 19.8399 65.606 20.5392 64.7907 22.1636C64.7907 22.3666 64.7907 22.4569 64.9538 22.4569H66.3049C66.4016 22.4616 66.4973 22.4355 66.5773 22.3825C66.6572 22.3296 66.717 22.2526 66.7475 22.1636C67.5628 20.4941 67.9589 19.7045 68.7509 18.0801V18.2606Z" fill="#3D5084"/>
<path d="M77.952 12.1468H82.9001L82.5352 12.892C83.0502 12.4617 83.6878 12.2012 84.3594 12.1468H86.9816C87.2927 12.1113 87.6074 12.1701 87.8841 12.3152C88.1609 12.4603 88.3868 12.685 88.5321 12.9597C88.657 13.273 88.7096 13.6101 88.6859 13.9461C88.6622 14.2822 88.5629 14.6087 88.3953 14.9018C87.8025 16.0761 87.5288 16.6632 86.9588 17.8149H81.988C82.6948 16.4148 83.0369 15.7373 83.7209 14.3372C83.7209 14.134 83.7209 14.0437 83.5841 14.0437H82.2388C82.1479 14.0438 82.0594 14.0722 81.9858 14.1249C81.9121 14.1776 81.8571 14.2519 81.8284 14.3372C79.8446 18.3117 78.8869 20.299 76.8347 24.2735H71.8867C74.3949 19.4183 75.535 17.002 77.952 12.1468Z" fill="#3D5084"/>
<path d="M90.9785 12.1468H95.9467L95.5804 12.892C96.0974 12.4617 96.7377 12.2012 97.412 12.1468H100.045C100.357 12.1113 100.673 12.1701 100.951 12.3152C101.229 12.4603 101.456 12.685 101.602 12.9597C101.727 13.273 101.78 13.6101 101.756 13.9461C101.732 14.2822 101.633 14.6087 101.464 14.9018C100.869 16.0761 100.594 16.6632 99.9991 17.8149H95.0309C95.7177 16.4148 96.0841 15.7373 96.7709 14.3372C96.7709 14.134 96.7709 14.0437 96.6107 14.0437H95.2827C95.1915 14.0438 95.1026 14.0722 95.0287 14.1249C94.9547 14.1776 94.8994 14.2519 94.8706 14.3372C92.8788 18.3117 91.9172 20.299 89.8337 24.2735H84.957C87.4068 19.4183 88.5287 17.002 90.9785 12.1468Z" fill="#3D5084"/>
<path d="M104.005 12.1116H108.845C106.458 16.9809 105.365 19.4042 102.89 24.2735H98.0273C100.503 19.4042 101.618 16.9809 104.005 12.1116ZM106.235 7.46875H111.098C110.295 9.0088 109.916 9.73354 109.157 11.3189H104.384C105.12 9.77883 105.522 9.03145 106.302 7.46875H106.235Z" fill="#3D5084"/>
<path d="M119.638 12.1452C119.95 12.113 120.266 12.1729 120.544 12.3173C120.821 12.4617 121.049 12.684 121.198 12.956C121.332 13.2675 121.388 13.6065 121.36 13.9438C121.332 14.2811 121.221 14.6067 121.037 14.8928L119.248 18.4737H112.365C111.654 19.9151 111.287 20.6133 110.552 22.0546C110.552 22.2573 110.552 22.3474 110.69 22.3474H112.021C112.116 22.3522 112.21 22.3261 112.289 22.2732C112.368 22.2203 112.427 22.1435 112.457 22.0546C112.938 21.1538 113.168 20.7033 113.627 19.8025H118.605C118.261 20.5007 118.101 20.8385 117.733 21.5141C117.309 22.302 116.685 22.9692 115.921 23.451C115.25 23.93 114.454 24.2112 113.627 24.2617H107.226C106.912 24.3003 106.594 24.2432 106.315 24.0981C106.036 23.953 105.809 23.7271 105.666 23.451C105.531 23.1394 105.475 22.8005 105.503 22.4631C105.531 22.1258 105.642 21.8002 105.826 21.5141C107.18 18.8791 107.822 17.5503 109.153 14.9153C109.57 14.1225 110.196 13.4538 110.965 12.9785C111.632 12.4926 112.43 12.2106 113.26 12.1677L119.638 12.1452ZM115.21 16.6495L116.357 14.3973C116.357 14.1947 116.357 14.1046 116.196 14.1046H114.843C114.751 14.1047 114.662 14.133 114.588 14.1856C114.514 14.2381 114.459 14.3122 114.43 14.3973C113.971 15.2982 113.741 15.7486 113.305 16.6495H115.21Z" fill="#3D5084"/>
<path d="M123.722 12.1452H128.676L128.289 12.8905C128.813 12.4635 129.455 12.2037 130.13 12.1452H132.743C133.053 12.1129 133.365 12.173 133.64 12.3178C133.915 12.4626 134.141 12.6856 134.288 12.9583C134.409 13.2733 134.458 13.6113 134.43 13.9474C134.403 14.2835 134.3 14.6092 134.129 14.9006C133.538 16.075 133.265 16.6623 132.675 17.8141H127.767L129.516 14.336C129.516 14.1327 129.516 14.0424 129.357 14.0424H127.994C127.903 14.0425 127.815 14.0709 127.742 14.1236C127.668 14.1763 127.614 14.2506 127.585 14.336C125.608 18.311 124.654 20.2985 122.586 24.2735H117.633C120.178 19.4176 121.291 17.001 123.722 12.1452Z" fill="#3D5084"/>
<path d="M147.691 7.57053C149.465 7.57053 150.337 8.02168 150.308 8.92396C150.188 9.90345 149.876 10.8474 149.392 11.6985C149.196 12.1271 149.087 12.3301 148.89 12.7812H143.875L144.791 10.8639C144.791 10.6834 144.791 10.5706 144.66 10.5706H143.373C143.285 10.5775 143.201 10.6083 143.128 10.6598C143.055 10.7113 142.997 10.7817 142.959 10.8639L141.956 12.9391C141.956 12.9391 141.956 13.1196 142.108 13.2098L144.943 15.4655C145.403 15.785 145.834 16.1474 146.23 16.5483C146.579 16.9994 146.426 17.9243 145.75 19.3228L145.183 20.4056C144.704 21.5874 143.956 22.632 143.002 23.4508C141.975 24.0515 140.801 24.3334 139.622 24.2628H135.261C133.822 24.2628 132.971 23.9696 132.731 23.4508C132.603 23.1387 132.55 22.7992 132.577 22.4614C132.604 22.1235 132.709 21.7974 132.884 21.5109C133.364 20.5183 133.604 20.0446 134.062 19.0521H139.077L138.14 20.992C138.14 21.1725 138.14 21.2402 138.292 21.2402H139.579C139.661 21.2468 139.743 21.2264 139.814 21.1818C139.884 21.1373 139.939 21.0709 139.971 20.992L140.974 18.8942C140.974 18.8942 140.974 18.7138 140.844 18.6235L138.009 16.3678C137.253 15.7513 136.817 15.3903 136.7 15.2851C136.351 14.8339 136.526 13.9091 137.18 12.5106C137.398 12.0369 137.529 11.8113 137.747 11.3601C138.208 10.1613 138.959 9.10494 139.928 8.29236C140.947 7.68861 142.114 7.40634 143.286 7.48031L147.691 7.57053Z" fill="#3D5084"/>
<path d="M159.785 12.1452C160.097 12.113 160.412 12.173 160.689 12.3177C160.967 12.4623 161.194 12.6851 161.343 12.9576C161.477 13.2697 161.533 13.6093 161.505 13.9473C161.477 14.2852 161.366 14.6115 161.182 14.8981C159.853 17.5382 159.212 18.8696 157.837 21.5096C157.414 22.2991 156.79 22.9675 156.028 23.4502C155.352 23.9196 154.561 24.2002 153.737 24.2626H147.345C147.035 24.2997 146.721 24.2415 146.447 24.0961C146.172 23.9506 145.949 23.725 145.81 23.4502C145.675 23.1381 145.62 22.7985 145.648 22.4605C145.676 22.1225 145.786 21.7963 145.97 21.5096C147.322 18.8696 147.986 17.5382 149.315 14.8981C149.732 14.1038 150.357 13.4337 151.125 12.9576C151.793 12.4742 152.588 12.1921 153.416 12.1452H159.785ZM156.509 14.4017C156.509 14.1986 156.509 14.1084 156.348 14.1084H154.997C154.905 14.1085 154.816 14.1369 154.742 14.1895C154.668 14.2422 154.613 14.3164 154.584 14.4017C153.026 17.4931 152.293 19.0501 150.667 22.1415C150.667 22.3445 150.667 22.4348 150.804 22.4348H152.133C152.228 22.4396 152.322 22.4134 152.401 22.3605C152.479 22.3075 152.538 22.2305 152.568 22.1415C154.172 18.9824 154.928 17.4254 156.509 14.334V14.4017Z" fill="#3D5084"/>
<path d="M169.384 24.2617H164.456L164.842 23.5166C163.96 24.063 162.928 24.3234 161.89 24.2617H160.414C160.104 24.3004 159.789 24.2431 159.513 24.0976C159.236 23.9522 159.012 23.7257 158.87 23.4489C158.74 23.1347 158.688 22.7939 158.72 22.4557C158.752 22.1175 158.865 21.792 159.051 21.507C160.959 17.7589 161.845 15.8849 163.752 12.1367H168.68C166.682 16.1106 165.728 18.0976 163.684 22.0715C163.684 22.2747 163.684 22.3651 163.82 22.3651H165.16C165.253 22.3632 165.343 22.3345 165.42 22.2823C165.497 22.2302 165.556 22.1569 165.592 22.0715C167.613 18.0976 168.567 16.1106 170.588 12.1367H175.516C173.063 16.9912 171.928 19.4072 169.384 24.2617Z" fill="#3D5084"/>
<path d="M176.952 12.1452H181.898L181.513 12.8905C182.036 12.4635 182.676 12.2037 183.351 12.1452H185.96C186.269 12.1129 186.581 12.173 186.856 12.3178C187.131 12.4626 187.356 12.6856 187.503 12.9583C187.624 13.2733 187.672 13.6113 187.645 13.9474C187.617 14.2835 187.515 14.6092 187.344 14.9006L185.869 17.8141H180.945L182.692 14.336C182.692 14.1327 182.692 14.0424 182.556 14.0424H181.218C181.127 14.0425 181.039 14.0709 180.966 14.1236C180.892 14.1763 180.838 14.2506 180.809 14.336C178.812 18.311 177.859 20.2985 175.772 24.2735H170.848C173.366 19.4176 174.524 17.001 176.952 12.1452Z" fill="#3D5084"/>
<path d="M199.024 12.1452C199.336 12.113 199.651 12.173 199.928 12.3176C200.205 12.4623 200.433 12.6851 200.581 12.9575C200.699 13.2739 200.745 13.6124 200.713 13.9482C200.681 14.284 200.573 14.6086 200.398 14.8979L199.23 17.2671H194.239L195.727 14.3339C195.727 14.1308 195.727 14.0405 195.567 14.0405H194.239C194.145 14.0424 194.054 14.0711 193.977 14.1232C193.899 14.1753 193.839 14.2485 193.804 14.3339C192.178 17.5378 191.514 19.1398 189.728 22.3664C189.728 22.5469 189.728 22.6372 189.866 22.6372H191.194C191.285 22.6402 191.376 22.616 191.453 22.5677C191.531 22.5194 191.592 22.4493 191.629 22.3664C192.315 21.0803 192.636 20.4259 193.3 19.1398H198.268L197.055 21.509C196.622 22.2993 195.992 22.9674 195.223 23.4494C194.522 23.95 193.685 24.2328 192.819 24.2617H186.569C186.256 24.3003 185.938 24.2431 185.66 24.0978C185.381 23.9524 185.155 23.7261 185.012 23.4494C184.881 23.1355 184.829 22.795 184.861 22.457C184.893 22.119 185.007 21.7937 185.195 21.509C186.546 18.8691 187.21 17.5378 188.538 14.8979C188.961 14.1085 189.584 13.4402 190.346 12.9575C191.048 12.4569 191.885 12.1741 192.75 12.1452H199.024Z" fill="#3D5084"/>
<path d="M212.091 12.1459C212.4 12.1122 212.712 12.1717 212.986 12.3165C213.259 12.4613 213.482 12.6846 213.624 12.9568C213.758 13.2683 213.814 13.6073 213.786 13.9447C213.758 14.282 213.648 14.6077 213.464 14.8938L211.656 18.475H204.791L202.961 22.0562C202.846 22.2589 202.961 22.349 203.098 22.349H204.425C204.52 22.3537 204.614 22.3276 204.693 22.2748C204.771 22.2219 204.83 22.1451 204.86 22.0562C205.34 21.1552 205.569 20.7048 206.027 19.8038H211.015C210.649 20.5021 210.489 20.8399 210.123 21.5156C209.698 22.3094 209.066 22.9779 208.292 23.4526C207.623 23.9316 206.83 24.2129 206.004 24.2634H199.62C199.307 24.2988 198.992 24.2402 198.714 24.0955C198.436 23.9507 198.209 23.7266 198.064 23.4526C197.945 23.1368 197.9 22.7989 197.932 22.4636C197.963 22.1284 198.071 21.8045 198.247 21.5156C199.62 18.8804 200.26 17.5515 201.61 14.9163C202.027 14.1234 202.651 13.4546 203.418 12.9793C204.087 12.5003 204.881 12.219 205.707 12.1685L212.091 12.1459ZM207.652 16.6506L208.796 14.3983C208.796 14.1955 208.796 14.1055 208.636 14.1055H207.308C207.213 14.1007 207.119 14.1268 207.041 14.1797C206.962 14.2325 206.903 14.3093 206.874 14.3983L205.729 16.6506H207.652Z" fill="#3D5084"/>
<path d="M46.4133 0.0922482C46.5052 0.0922482 46.5971 0.0922482 46.5971 0.0922482C46.5052 0.276747 46.4593 0.415123 46.3215 0.691872C44.7596 3.92061 41.6359 10.1013 41.6359 10.1013C40.6712 10.1475 39.7065 10.1475 38.7419 10.332C37.8231 10.4703 35.3425 12.6435 35.9397 15.042C36.0775 15.5494 36.3991 15.9645 36.5828 16.4257C37.5934 19.0548 37.8231 19.0034 37.1341 21.4942C36.3991 24.2155 33.7807 28.09 30.9785 29.0586C28.3142 29.9811 25.0067 29.935 21.883 29.935H15.9112C15.9112 29.935 15.8652 29.935 15.9112 29.8889L20.2752 20.2488H22.7558C22.7558 20.2488 22.8017 20.2488 22.7558 20.2027C22.5261 19.972 22.2517 19.3904 22.4855 18.4499L10.6744 19.3263L10.3987 19.9259L10.5365 20.2027H17.519C17.519 20.2027 17.5649 20.2027 17.519 20.2488C17.2893 20.8484 13.6603 29.5199 13.5224 29.8889H9.93936C8.97469 29.8889 8.05595 29.8889 7.09127 29.8889C6.12659 29.8889 4.93223 29.935 4.28911 29.6121C3.55412 29.197 3.00287 28.1361 2.45163 27.4904C1.85445 26.6601 1.34914 25.7838 0.981646 24.8151C0.200717 22.8779 -0.0749079 20.71 0.0169661 18.6344C0.200714 15.5902 1.11946 12.5921 2.68131 9.96296C4.24317 7.28772 6.44815 4.98148 9.02062 3.27486C11.4093 1.6605 14.7168 0 17.6568 0H26.9361C26.9361 0 26.982 2.81411e-06 26.9361 0.0461276L26.5226 1.01474C26.4767 1.10699 26.4307 1.24537 26.3848 1.33762L22.4342 10.1013H15.5896C15.4059 10.1013 15.2681 10.1013 15.1302 10.1013L14.8087 10.2858L11.0418 18.4038L10.6744 19.3263L22.4855 18.4499C22.7193 17.5094 23.6997 16.8841 24.7103 16.8841C25.7209 16.8841 26.1551 17.4813 26.3389 18.4499H29.2788C29.7842 17.5735 30.4273 16.3743 31.1623 14.9444L31.1163 14.8983C31.0704 14.8061 30.9785 14.7599 30.8866 14.7599H28.8195L28.5438 14.4371C28.5438 14.4371 28.5438 14.4371 28.5438 14.3909L29.8301 11.2083C29.7382 11.1161 29.0951 10.2397 29.0032 10.1475V10.1936C28.1304 10.1475 26.1092 10.1936 25.1905 10.1936C25.1905 10.1936 25.1445 10.1936 25.1905 10.1475C25.5579 9.22496 26.247 7.61059 26.247 7.61059C26.2929 7.51834 26.3389 7.37997 26.3848 7.28772C26.3848 7.28772 27.4414 4.61248 27.8548 3.64386C28.4979 2.16787 29.141 0.0922482 30.8866 0.0922482C32.3566 0.0922482 33.6429 0.0922482 35.2507 0.0922482C36.6288 0.0922482 38.0528 0.0922482 39.4309 0.0922482C41.7278 0.0922482 43.9787 0.0922482 46.2755 0.0922482H46.4133Z" fill="#3D5084"/>
<path d="M10.6738 17.1125L21.1015 17.5738L10.6738 17.9889V17.1125Z" fill="#3D5084"/>
<path d="M11.5928 15.7286L19.7236 16.1899L11.5928 16.605V15.7286Z" fill="#3D5084"/>
<path d="M12.4658 14.3911L18.3458 14.8062L12.4658 15.2675V14.3911Z" fill="#3D5084"/>
</svg>
